<svg width="20" height="21" viewBox="0 0 20 21" fill="none" xmlns="http://www.w3.org/2000/svg">
<path d="M1.69667 10.5003C1.63916 10.3275 1.63916 10.1406 1.69667 9.9678C2.8525 6.4903 6.13333 3.98196 10 3.98196C13.865 3.98196 17.1442 6.4878 18.3025 9.96363C18.3608 10.1361 18.3608 10.3228 18.3025 10.4961C17.1475 13.9736 13.8667 16.482 10 16.482C6.135 16.482 2.85583 13.9761 1.6975 10.5003H1.69667Z" stroke="white" stroke-width="2" stroke-linecap="round" stroke-linejoin="round"/>
<path d="M12.5 10.232C12.5 10.895 12.2366 11.5309 11.7678 11.9997C11.2989 12.4686 10.663 12.732 10 12.732C9.33696 12.732 8.70107 12.4686 8.23223 11.9997C7.76339 11.5309 7.5 10.895 7.5 10.232C7.5 9.56892 7.76339 8.93304 8.23223 8.4642C8.70107 7.99536 9.33696 7.73196 10 7.73196C10.663 7.73196 11.2989 7.99536 11.7678 8.4642C12.2366 8.93304 12.5 9.56892 12.5 10.232V10.232Z" stroke="white" stroke-width="2" stroke-linecap="round" stroke-linejoin="round"/>
</svg>
