<svg width="104" height="104" viewBox="0 0 104 104" fill="none" xmlns="http://www.w3.org/2000/svg">
<circle cx="52" cy="52" r="50" fill="#D84165"/>
<circle cx="52" cy="52" r="51" stroke="white" stroke-opacity="0.1" stroke-width="2"/>
<path fill-rule="evenodd" clip-rule="evenodd" d="M52 36.3379C50.7192 36.3379 49.4908 36.8467 48.585 37.7524C47.6793 38.6582 47.1705 39.8866 47.1705 41.1674C47.1705 42.4483 47.6793 43.6767 48.585 44.5824C49.4908 45.4882 50.7192 45.997 52 45.997C53.2809 45.997 54.5093 45.4882 55.415 44.5824C56.3208 43.6767 56.8296 42.4483 56.8296 41.1674C56.8296 39.8866 56.3208 38.6582 55.415 37.7524C54.5093 36.8467 53.2809 36.3379 52 36.3379ZM45.3709 34.5383C47.1291 32.7802 49.5136 31.7924 52 31.7924C54.4864 31.7924 56.871 32.7802 58.6292 34.5383C60.3873 36.2965 61.375 38.681 61.375 41.1674C61.375 43.6538 60.3873 46.0384 58.6292 47.7966C56.871 49.5547 54.4864 50.5424 52 50.5424C49.5136 50.5424 47.1291 49.5547 45.3709 47.7966C43.6128 46.0384 42.625 43.6538 42.625 41.1674C42.625 38.681 43.6128 36.2965 45.3709 34.5383ZM52 56.2062C48.8693 56.2062 45.8639 57.4367 43.6321 59.6324C41.7562 61.4779 40.5532 63.881 40.1869 66.4594C43.8369 67.9202 47.8224 68.7243 52 68.7243L52.0031 68.7243C56.0531 68.7298 60.0616 67.959 63.8131 66.4588C63.4467 63.8806 62.2437 61.4777 60.3679 59.6324C58.1362 57.4367 55.1308 56.2062 52 56.2062ZM40.4444 56.3921C43.5264 53.36 47.6766 51.6608 52 51.6608C56.3235 51.6608 60.4737 53.36 63.5557 56.3921C66.6377 59.4242 68.4045 63.5461 68.4751 67.869C68.4898 68.7708 67.9699 69.596 67.15 69.972C62.3961 72.1518 57.2268 73.2768 51.997 73.2697L52 70.997V73.2697C51.999 73.2697 51.998 73.2697 51.997 73.2697C46.5962 73.2693 41.4638 72.0899 36.8492 69.9716C36.0298 69.5954 35.5102 68.7705 35.525 67.869C35.5956 63.5461 37.3624 59.4242 40.4444 56.3921Z" fill="white"/>
</svg>
