<svg width="20" height="18" viewBox="0 0 20 18" fill="none" xmlns="http://www.w3.org/2000/svg">
<path d="M3.31666 6.08446C2.53704 7.00461 1.95651 8.0763 1.61166 9.23196C2.68833 12.847 6.03666 15.482 10 15.482C10.8275 15.482 11.6275 15.367 12.3858 15.1528M5.19 4.42196C6.61718 3.48014 8.29006 2.97932 10 2.98196C13.9633 2.98196 17.3108 5.61696 18.3875 9.2303C17.7974 11.2047 16.5308 12.9082 14.81 14.042M5.19 4.42196L2.5 1.73196M5.19 4.42196L8.23166 7.46363M14.81 14.042L17.5 16.732M14.81 14.042L11.7683 11.0003M11.7683 11.0003C12.0005 10.7681 12.1847 10.4925 12.3103 10.1892C12.436 9.88583 12.5006 9.56071 12.5006 9.23238C12.5006 8.90405 12.436 8.57893 12.3103 8.27559C12.1847 7.97225 12.0005 7.69663 11.7683 7.46446C11.5362 7.2323 11.2605 7.04813 10.9572 6.92249C10.6539 6.79684 10.3287 6.73217 10.0004 6.73217C9.67208 6.73217 9.34696 6.79684 9.04362 6.92249C8.74028 7.04813 8.46466 7.2323 8.2325 7.46446M11.7675 10.9995L8.23333 7.4653" stroke="white" stroke-width="2" stroke-linecap="round" stroke-linejoin="round"/>
</svg>
